<svg xmlns="http://www.w3.org/2000/svg" viewBox="0 0 100 53"><g clip-path="url(#clip0)"><path d="M13.088 16.047l8.042 20.558h-5.353l-1.372-3.848H6.65l-1.342 3.848H0l7.997-20.558h5.091zm.221 13.216l-2.75-7.844-2.809 7.844h5.56zM28.136 16.047v20.558h-5.027V16.047h5.026zM38.128 21.92h-.09v14.685h-5.026V16.047h7.081l5.097 14.122 5.092-14.122h7.081v20.558h-5.026V21.921h-.09l-5.343 14.684h-3.438l-5.338-14.684zM81.05 29.35c-.337 3.083-2.136 7.843-9.706 7.843-5.463 0-10.469-2.41-10.469-10.487 0-10.836 8.213-11.246 10.288-11.246 7.595 0 9.49 4.557 9.64 7.595h-4.94c-.503-3.438-3.297-3.585-4.458-3.585s-5.097.207-5.097 7.089c0 3.879 1.83 6.669 5.253 6.669 3.322 0 4.237-2.32 4.483-3.849l5.006-.03zM83.031 29.116c0-5.874 4.182-7.99 8.484-7.99 4.856 0 8.484 2.531 8.484 7.99s-3.658 8.046-8.484 8.046c-4.825 0-8.484-2.557-8.484-8.046zm12.148 0c0-4.76-2.513-4.993-3.664-4.993-1.035 0-3.659.233-3.659 4.993 0 1.909.367 5.064 3.66 5.064 3.291 0 3.663-3.186 3.663-5.064zM32.946 8.249c10.002-2.7 24.724-3.894 31.227 2.846h12.465a16.73 16.73 0 00-4.02-5.09C64.408-.915 53.05-1.675 40.655 2.786a64.74 64.74 0 00-10.258 4.806 81.646 81.646 0 00-5.59 3.504s5.504-2.137 8.128-2.846M67.025 44.271c-10.002 2.7-24.729 3.894-31.228-2.846H23.313a16.69 16.69 0 004.02 5.064c8.208 6.922 19.572 7.682 31.967 3.22a64.95 64.95 0 0010.238-4.8 81.666 81.666 0 005.589-3.504S69.623 43.542 67 44.251"/></g></svg>