<?xml version="1.0" encoding="UTF-8"?>
<!DOCTYPE svg PUBLIC "-//W3C//DTD SVG 1.1//EN" "http://www.w3.org/Graphics/SVG/1.1/DTD/svg11.dtd">
<!-- Creator: CorelDRAW -->
<svg xmlns="http://www.w3.org/2000/svg" xml:space="preserve" width="1962px" height="823px" shape-rendering="geometricPrecision" text-rendering="geometricPrecision" image-rendering="optimizeQuality" fill-rule="evenodd" clip-rule="evenodd"
viewBox="0 0 1791.46 751.224"
 xmlns:xlink="http://www.w3.org/1999/xlink">
 <defs>
   <linearGradient id="id0" gradientUnits="userSpaceOnUse" x1="1016.35" y1="-9.65425" x2="1786.4" y2="760.402">
    <stop offset="0" stop-color="#F3AE18"/>
    <stop offset="1" stop-color="#DD3E31"/>
   </linearGradient>
 </defs>
 <g id="Ebene_x0020_1">
  <metadata id="CorelCorpID_0Corel-Layer"/>
  <path fill="#005E97" d="M11.0618 512.641c29.0135,5.52119 45.5964,6.89744 67.7017,6.89744 35.9292,0 51.1284,-2.7525 59.4183,-12.3938 4.14817,-4.14601 6.9093,-8.2834 6.9093,-15.1895 0,-20.6848 -13.8154,-26.2059 -26.2534,-27.5649l-45.604 -11.0434c-58.0345,-13.7873 -73.2336,-57.9072 -73.2336,-84.125 0,-33.0948 11.0618,-56.5299 29.021,-73.0772 22.1149,-22.0696 53.8895,-34.4818 110.548,-34.4818 33.1562,0 66.3254,2.76005 99.4914,8.27477l-5.52981 67.5744c-23.4912,-4.14493 -48.3673,-6.89636 -73.2336,-6.89636 -29.021,0 -58.0345,4.13523 -58.0345,30.3423 0,19.3107 19.3366,23.4383 26.2534,24.8221l52.5025 9.65965c44.2202,8.26398 69.0962,38.6084 69.0962,85.498 0,74.4751 -42.8439,110.323 -131.277,110.323 -45.604,0 -85.6717,-4.14817 -117.454,-9.66935l9.67798 -68.9506z"/>
  <path fill="#005E97" d="M366.181 329.239l-1.38488 100.662c0,16.5474 0,31.7282 0,46.9015 0,22.0589 9.6769,33.0948 34.553,33.0948 22.1052,0 33.1595,-12.4197 33.1595,-37.2418l1.3838 -143.416 91.2015 0 -1.38488 135.151c0,78.6027 -27.6361,125.484 -129.892,125.484 -92.5767,0 -121.599,-56.5482 -121.599,-102.064 0,-16.5398 0,-37.2149 1.38704,-55.1385l1.37409 -103.432 91.2015 0z"/>
  <polygon fill="#005E97" points="559.639,329.239 672.956,329.239 726.832,475.415 728.219,475.415 728.219,329.239 809.753,329.239 806.982,582.979 695.06,582.979 635.642,435.422 638.402,582.979 556.876,582.979 "/>
  <path fill="#005E97" d="M1040.51 582.979c-11.0542,1.3838 -23.4998,4.13415 -35.9303,5.52119 -11.0607,0 -24.8728,1.37409 -40.0645,1.37409 -88.4404,0 -135.431,-60.6683 -135.431,-133.766 0,-81.3639 46.991,-133.767 146.485,-133.767 27.6275,0 44.2202,2.76113 66.3254,6.89852l-12.438 75.8416c-12.4456,-2.76113 -27.6448,-4.13738 -37.3141,-4.13738 -58.0323,0 -69.0855,33.1045 -69.0855,55.1644 0,26.2059 12.438,55.1558 64.9502,55.1558 13.8046,0 27.6275,-1.36654 40.0655,-2.7428l12.438 74.4578z"/>
  <path fill="#005E97" d="M1181.45 322.341c88.4479,0 135.428,60.678 135.428,133.767 0,73.0977 -46.9802,133.766 -135.428,133.766 -89.8091,0 -136.798,-60.6683 -136.798,-133.766 0,-73.0891 46.9889,-133.767 136.798,-133.767zm0 74.4751c-31.7746,0 -41.4418,26.1887 -41.4418,59.2921 0,33.0948 9.6672,59.2932 41.4418,59.2932 31.7897,0 40.0817,-26.1984 40.0817,-59.2932 0,-33.1034 -8.29202,-59.2921 -40.0817,-59.2921z"/>
  <path fill="#005E97" d="M1580.81 582.979l-100.878 0 -53.8863 -107.563 -1.38704 107.563 -88.4296 0 1.3838 -253.739 134.027 0c70.4822,0 92.5874,34.471 92.5874,75.8416 0,34.4786 -22.1052,63.4284 -53.8971,64.8057l70.4801 113.092zm-153.381 -142.034l17.9603 0c16.583,0 30.4048,-1.38488 30.4048,-23.4437 0,-16.5571 -5.52874,-27.5833 -27.6448,-27.5833l-20.7204 0 0 51.027z"/>
  <polygon fill="#005E97" points="5.53197,667.11 53.8874,667.11 53.8874,679.512 22.1052,679.512 22.1052,700.205 51.1359,700.205 51.1359,712.624 22.1052,712.624 22.1052,736.07 53.8874,736.07 53.8874,749.85 5.53197,749.85 "/>
  <polygon fill="#005E97" points="129.892,667.11 150.62,667.11 181.018,729.164 182.402,729.164 182.402,667.11 197.601,667.11 197.601,749.85 176.873,749.85 146.475,687.795 145.091,687.795 145.091,749.85 129.892,749.85 "/>
  <polygon fill="#005E97" points="276.367,667.11 324.732,667.11 324.732,679.512 292.95,679.512 292.95,700.205 321.971,700.205 321.971,712.624 292.95,712.624 292.95,736.07 324.732,736.07 324.732,749.85 276.367,749.85 "/>
  <path fill="#005E97" d="M399.349 667.11l17.9603 0c17.9679,0 40.0752,-1.37625 40.0752,22.0696 0,9.64131 -6.9093,17.9236 -17.9603,19.3074 5.52226,0 6.90607,5.51471 9.6672,8.25751l12.438 33.1055 -17.9679 0 -9.66935 -26.207c-2.76113,-5.51471 -5.52874,-8.28232 -12.438,-8.28232l-5.52874 0 0 34.4893 -16.5765 0 0 -82.7401zm16.5765 34.471l5.52874 0c8.2931,0 17.97,0 17.97,-11.0251 0,-9.65965 -9.6769,-11.0434 -17.97,-11.0434l-5.52874 0 0 22.0686z"/>
  <path fill="#005E97" d="M598.328 682.274c-6.90607,-2.76113 -15.1992,-4.13846 -22.1052,-4.13846 -19.3463,0 -29.021,13.7873 -29.021,30.352 0,16.5398 9.67475,28.9326 27.634,28.9326 4.14817,0 8.2931,0 11.0542,0l0 -22.0589 -17.9603 0 0 -13.7798 33.1692 0 0 45.508c-8.2931,1.3838 -17.97,4.13523 -26.2631,4.13523 -26.2502,0 -45.5943,-13.8046 -45.5943,-41.3598 0,-28.9682 17.9603,-44.1307 45.5943,-44.1307 9.6769,0 17.97,1.37625 24.8761,2.76005l-1.3838 13.7798z"/>
  <polygon fill="#005E97" points="700.582,716.745 670.184,667.11 689.528,667.11 708.872,701.581 729.603,667.11 747.571,667.11 717.165,716.745 717.165,749.85 700.582,749.85 "/>
  <path fill="url(#id0)" d="M1569.84 750.747l48.7707 0c57.6289,-43.0499 101.956,-96.2546 132.364,-157.05 60.7956,-114.639 51.9265,-284.371 -18.3648,-392.038l0 0c-77.5263,-120.273 -200.201,-196.408 -344.932,-201.66l-32.4228 0c-5.50069,0.198456 -11.0251,0.48967 -16.5797,0.891975 -149.471,12.6624 -296.404,120.329 -347.701,264.727l72.8356 0 37.9968 -57.6289c97.5338,-120.329 258.397,-166.566 405.971,-117.164 128.559,41.1614 226.729,172.267 240.032,304.001 15.1981,147.564 -55.104,279.298 -177.969,355.921z"/>
 </g>
</svg>
